<?xml version="1.0" encoding="UTF-8"?>
<svg id="Layer_2" data-name="Layer 2" xmlns="http://www.w3.org/2000/svg" viewBox="0 0 229.64 224.29">
  <defs>
    <style>
      .cls-1 {
        fill: #f02642;
      }
    </style>
  </defs>
  <g id="Bright_Red_f02642" data-name="Bright Red #f02642">
    <g>
      <g>
        <path class="cls-1" d="M197.67,205.76c-10.14,0-14.15-8.68-14.15-16.78,0-9.62,5.67-16.32,14.06-16.32,7.85,0,10.83,4.2,12.08,9.35h19.99c-2.67-19.84-16.73-27.1-28.91-27.67-6.01-.28-11.49,.11-17.11,2.34-11.22,4.46-18.7,14.82-20.56,26.62-1.91,12.16,2.31,25.57,11.99,33.47,4.48,3.65,11.74,7.51,23.04,7.51,23.81,0,30.74-18.91,31.55-27.81h-19.99c-.81,2.49-1.99,9.28-11.99,9.28Z"/>
        <path class="cls-1" d="M29.83,196.64L0,63.04H25.59l21.55,110.7,21.55-110.7h25.59l-29.45,133.6H29.83Z"/>
        <path class="cls-1" d="M132.54,196.63h-24.4V63.04h47c29.82,0,40.99,10.69,40.99,39.23v.64c0,28.55-11.16,39.87-40.99,39.87h-22.76l.16,53.85Zm-.16-113.02v38.43h19.25c14.51,0,19.78-4.62,19.78-19.14v-.32c0-14.67-5.26-18.98-19.78-18.98h-19.25Z"/>
      </g>
      <polygon class="cls-1" points="54.2 23.66 101.21 0 148.22 23.66 148.22 44.9 101.21 23.66 54.2 44.9 54.2 23.66"/>
    </g>
  </g>
</svg>